<?xml version="1.0" standalone="no"?>
<!DOCTYPE svg PUBLIC "-//W3C//DTD SVG 20010904//EN"
 "http://www.w3.org/TR/2001/REC-SVG-20010904/DTD/svg10.dtd">
<svg version="1.0" xmlns="http://www.w3.org/2000/svg"
 width="580.000000pt" height="580.000000pt" viewBox="0 0 580.000000 580.000000"
 preserveAspectRatio="xMidYMid meet">
<metadata>
Created by potrace 1.11, written by Peter Selinger 2001-2013
</metadata>
<g transform="translate(0.000000,580.000000) scale(0.100000,-0.100000)"
fill="#000000" stroke="none">
<path d="M1068 5716 l-78 -81 640 -640 c352 -352 640 -642 640 -645 0 -3 -70
-4 -155 -3 -85 1 -155 1 -155 -1 0 -2 287 -293 638 -646 l639 -642 629 632
c346 348 635 638 642 646 11 11 -134 13 -943 13 l-956 0 -726 725 c-399 399
-728 725 -732 725 -3 -1 -41 -38 -83 -83z"/>
<path d="M1655 4027 l0 -322 507 -507 c280 -280 508 -509 508 -511 0 -1 -228
-2 -507 -2 l-508 0 0 -227 c0 -197 2 -228 15 -229 37 -1 126 -1 135 1 6 1 15
2 20 1 14 -3 208 -3 220 -1 6 1 15 2 20 1 14 -3 529 -3 541 0 5 1 14 1 19 0
27 -5 215 -2 224 3 5 4 12 2 15 -2 5 -8 29 -9 61 -2 6 1 15 2 20 1 27 -5 215
-2 224 3 5 4 12 2 15 -2 5 -8 29 -9 61 -2 6 1 15 2 20 1 27 -5 215 -2 224 3 5
4 12 2 15 -2 5 -8 29 -9 61 -2 6 1 15 2 20 1 14 -3 208 -3 220 -1 6 1 15 2 20
1 14 -3 208 -3 220 -1 6 1 15 2 20 1 14 -3 208 -3 220 -1 6 1 15 2 20 1 9 -2
263 -2 453 -1 l62 0 -2 228 -3 227 -507 0 -508 0 510 510 510 510 0 322 0 321
-790 -791 -790 -792 -790 790 c-435 435 -792 791 -793 792 -1 1 -2 -143 -2
-320z"/>
<path d="M1662 2000 c-6 -4 -9 -1308 -3 -1330 0 -3 712 -4 1581 -2 l1580 2 -2
668 -3 667 -1573 0 c-865 0 -1576 -2 -1580 -5z"/>
<path d="M1673 442 c-22 -3 -22 -4 -21 -223 l0 -219 1584 0 1583 0 -1 220 c0
218 0 220 -21 221 -61 3 -3105 4 -3124 1z"/>
</g>
</svg>
